<svg width="204" height="25" viewBox="0 0 204 25" fill="none" xmlns="http://www.w3.org/2000/svg">
<path d="M23.04 24.256H17.888L17.504 15.584C17.3973 13.5147 17.344 11.6693 17.344 10.048C17.344 8.81067 17.376 7.63733 17.44 6.528L14.016 21.92H9.056L5.408 6.528C5.536 8.384 5.6 10.1333 5.6 11.776C5.6 13.0133 5.568 14.304 5.504 15.648L5.12 24.256H0L1.664 2.08H8.288L11.616 17.12L14.72 2.08H21.376L23.04 24.256Z" fill="black"/>
<path d="M39.5882 19.328C39.5882 19.968 39.6736 20.4373 39.8442 20.736C40.0363 21.0347 40.3349 21.2587 40.7402 21.408L39.6842 24.704C38.6389 24.6187 37.7856 24.3947 37.1242 24.032C36.4629 23.648 35.9509 23.0507 35.5882 22.24C34.4789 23.9467 32.7723 24.8 30.4683 24.8C28.7829 24.8 27.4389 24.3093 26.4363 23.328C25.4336 22.3467 24.9323 21.0667 24.9323 19.488C24.9323 17.632 25.6149 16.2133 26.9802 15.232C28.3456 14.2507 30.3189 13.76 32.9002 13.76H34.6283V13.024C34.6283 12.0213 34.4149 11.3387 33.9883 10.976C33.5616 10.592 32.8149 10.4 31.7483 10.4C31.1936 10.4 30.5216 10.4853 29.7323 10.656C28.9429 10.8053 28.1323 11.0187 27.3003 11.296L26.1483 7.968C27.2149 7.56267 28.3029 7.25333 29.4123 7.04C30.5429 6.82667 31.5882 6.72 32.5482 6.72C34.9802 6.72 36.7616 7.22133 37.8923 8.224C39.0229 9.22667 39.5882 10.7307 39.5882 12.736V19.328ZM31.9403 21.184C33.0923 21.184 33.9883 20.64 34.6283 19.552V16.544H33.3802C32.2282 16.544 31.3643 16.7467 30.7882 17.152C30.2336 17.5573 29.9563 18.1867 29.9563 19.04C29.9563 19.7227 30.1269 20.256 30.4683 20.64C30.8309 21.0027 31.3216 21.184 31.9403 21.184Z" fill="black"/>
<path d="M54.2715 23.456C53.6528 23.8827 52.9275 24.2133 52.0955 24.448C51.2848 24.6827 50.4742 24.8 49.6635 24.8C45.9515 24.7787 44.0955 22.7307 44.0955 18.656V10.784H41.6955V7.264H44.0955V3.584L49.1515 3.008V7.264H53.0555L52.5115 10.784H49.1515V18.592C49.1515 19.3813 49.2795 19.9467 49.5355 20.288C49.7915 20.6293 50.1968 20.8 50.7515 20.8C51.3275 20.8 51.9355 20.6187 52.5755 20.256L54.2715 23.456Z" fill="black"/>
<path d="M65.9112 6.72C67.3832 6.72 68.5352 7.168 69.3672 8.064C70.1992 8.96 70.6152 10.2187 70.6152 11.84V24.256H65.5592V12.704C65.5592 11.8507 65.4206 11.264 65.1432 10.944C64.8659 10.6027 64.4713 10.432 63.9593 10.432C62.9353 10.432 61.9539 11.1573 61.0153 12.608V24.256H55.9593V0.511999L61.0153 0V9.088C61.7193 8.29867 62.4659 7.712 63.2552 7.328C64.0446 6.92267 64.9299 6.72 65.9112 6.72Z" fill="black"/>
<path d="M89.244 15.424C89.244 16.128 89.212 16.736 89.148 17.248H78.62C78.7907 18.6773 79.196 19.68 79.836 20.256C80.476 20.832 81.3613 21.12 82.492 21.12C83.1747 21.12 83.836 21.0027 84.476 20.768C85.116 20.512 85.8093 20.128 86.556 19.616L88.636 22.432C86.652 24.0107 84.444 24.8 82.012 24.8C79.26 24.8 77.148 23.9893 75.676 22.368C74.204 20.7467 73.468 18.5707 73.468 15.84C73.468 14.112 73.7773 12.5653 74.396 11.2C75.0147 9.81333 75.9213 8.72533 77.116 7.936C78.3107 7.12533 79.74 6.72 81.404 6.72C83.8573 6.72 85.7773 7.488 87.164 9.024C88.5507 10.56 89.244 12.6933 89.244 15.424ZM84.284 13.984C84.2413 11.3813 83.324 10.08 81.532 10.08C80.6573 10.08 79.9747 10.4 79.484 11.04C79.0147 11.68 78.7267 12.736 78.62 14.208H84.284V13.984Z" fill="black"/>
<path d="M106.42 24.256H102.036L101.812 22.112C100.575 23.904 98.8576 24.8 96.6602 24.8C95.1029 24.8 93.9189 24.3307 93.1083 23.392C92.3189 22.4533 91.9242 21.1413 91.9242 19.456V7.264H96.9802V18.816C96.9802 19.648 97.1082 20.2347 97.3643 20.576C97.6416 20.896 98.0576 21.056 98.6123 21.056C99.6789 21.056 100.596 20.3947 101.364 19.072V7.264H106.42V24.256Z" fill="black"/>
<path d="M116.381 6.72C117.597 6.72 118.738 6.90133 119.805 7.264C120.871 7.62667 121.81 8.13867 122.621 8.8L120.765 11.648C119.378 10.7733 117.981 10.336 116.573 10.336C115.911 10.336 115.399 10.4533 115.037 10.688C114.695 10.9013 114.525 11.2107 114.525 11.616C114.525 11.936 114.599 12.2027 114.749 12.416C114.919 12.608 115.25 12.8107 115.741 13.024C116.231 13.2373 116.989 13.4933 118.013 13.792C119.783 14.304 121.095 14.976 121.949 15.808C122.823 16.6187 123.261 17.7493 123.261 19.2C123.261 20.352 122.93 21.3547 122.269 22.208C121.607 23.04 120.701 23.68 119.549 24.128C118.397 24.576 117.117 24.8 115.709 24.8C114.279 24.8 112.946 24.576 111.709 24.128C110.493 23.68 109.458 23.0613 108.605 22.272L111.069 19.52C112.498 20.6293 114.002 21.184 115.581 21.184C116.349 21.184 116.946 21.0453 117.373 20.768C117.821 20.4907 118.045 20.096 118.045 19.584C118.045 19.1787 117.959 18.8587 117.789 18.624C117.618 18.3893 117.287 18.176 116.797 17.984C116.306 17.7707 115.527 17.5147 114.461 17.216C112.775 16.7253 111.517 16.0427 110.685 15.168C109.853 14.2933 109.437 13.2053 109.437 11.904C109.437 10.9227 109.714 10.048 110.269 9.28C110.845 8.49067 111.655 7.872 112.701 7.424C113.767 6.95467 114.994 6.72 116.381 6.72Z" fill="black"/>
<path d="M143.155 1.536C146.014 1.536 148.478 2.44267 150.547 4.256L147.891 7.04C147.102 6.44267 146.366 6.016 145.683 5.76C145.022 5.48267 144.254 5.344 143.379 5.344C141.737 5.344 140.425 5.99467 139.443 7.296C138.462 8.576 137.971 10.528 137.971 13.152C137.971 15.9893 138.345 18.0053 139.091 19.2C139.838 20.3733 141.001 20.96 142.579 20.96C143.689 20.96 144.691 20.7147 145.587 20.224V15.2H142.707L142.195 11.488H150.675V22.464C149.523 23.2107 148.254 23.7867 146.867 24.192C145.481 24.5973 144.094 24.8 142.707 24.8C139.337 24.8 136.798 23.8187 135.091 21.856C133.385 19.872 132.531 16.9707 132.531 13.152C132.531 10.72 132.99 8.62933 133.907 6.88C134.846 5.13067 136.115 3.808 137.715 2.912C139.337 1.99467 141.15 1.536 143.155 1.536Z" fill="black"/>
<path d="M161.444 6.72C164.047 6.72 166.084 7.52 167.556 9.12C169.028 10.6987 169.764 12.9173 169.764 15.776C169.764 17.5893 169.423 19.1787 168.74 20.544C168.079 21.888 167.119 22.9333 165.86 23.68C164.623 24.4267 163.151 24.8 161.444 24.8C158.863 24.8 156.826 24.0107 155.332 22.432C153.86 20.832 153.124 18.6027 153.124 15.744C153.124 13.9307 153.455 12.352 154.116 11.008C154.799 9.64267 155.759 8.58667 156.996 7.84C158.255 7.09333 159.738 6.72 161.444 6.72ZM161.444 10.432C160.42 10.432 159.652 10.8693 159.14 11.744C158.628 12.5973 158.372 13.9307 158.372 15.744C158.372 17.6 158.618 18.9547 159.108 19.808C159.62 20.6613 160.399 21.088 161.444 21.088C162.468 21.088 163.236 20.6613 163.748 19.808C164.26 18.9333 164.516 17.5893 164.516 15.776C164.516 13.92 164.26 12.5653 163.748 11.712C163.258 10.8587 162.49 10.432 161.444 10.432Z" fill="black"/>
<path d="M187.588 15.424C187.588 16.128 187.556 16.736 187.492 17.248H176.964C177.134 18.6773 177.54 19.68 178.18 20.256C178.82 20.832 179.705 21.12 180.836 21.12C181.518 21.12 182.18 21.0027 182.82 20.768C183.46 20.512 184.153 20.128 184.9 19.616L186.98 22.432C184.996 24.0107 182.788 24.8 180.356 24.8C177.604 24.8 175.492 23.9893 174.02 22.368C172.548 20.7467 171.812 18.5707 171.812 15.84C171.812 14.112 172.121 12.5653 172.74 11.2C173.358 9.81333 174.265 8.72533 175.46 7.936C176.654 7.12533 178.084 6.72 179.748 6.72C182.201 6.72 184.121 7.488 185.508 9.024C186.894 10.56 187.588 12.6933 187.588 15.424ZM182.628 13.984C182.585 11.3813 181.668 10.08 179.876 10.08C179.001 10.08 178.318 10.4 177.828 11.04C177.358 11.68 177.07 12.736 176.964 14.208H182.628V13.984Z" fill="black"/>
<path d="M196.412 6.72C197.628 6.72 198.769 6.90133 199.836 7.264C200.903 7.62667 201.841 8.13867 202.652 8.8L200.796 11.648C199.409 10.7733 198.012 10.336 196.604 10.336C195.943 10.336 195.431 10.4533 195.068 10.688C194.727 10.9013 194.556 11.2107 194.556 11.616C194.556 11.936 194.631 12.2027 194.78 12.416C194.951 12.608 195.281 12.8107 195.772 13.024C196.263 13.2373 197.02 13.4933 198.044 13.792C199.815 14.304 201.127 14.976 201.98 15.808C202.855 16.6187 203.292 17.7493 203.292 19.2C203.292 20.352 202.961 21.3547 202.3 22.208C201.639 23.04 200.732 23.68 199.58 24.128C198.428 24.576 197.148 24.8 195.74 24.8C194.311 24.8 192.977 24.576 191.74 24.128C190.524 23.68 189.489 23.0613 188.636 22.272L191.1 19.52C192.529 20.6293 194.033 21.184 195.612 21.184C196.38 21.184 196.977 21.0453 197.404 20.768C197.852 20.4907 198.076 20.096 198.076 19.584C198.076 19.1787 197.991 18.8587 197.82 18.624C197.649 18.3893 197.319 18.176 196.828 17.984C196.337 17.7707 195.559 17.5147 194.492 17.216C192.807 16.7253 191.548 16.0427 190.716 15.168C189.884 14.2933 189.468 13.2053 189.468 11.904C189.468 10.9227 189.745 10.048 190.3 9.28C190.876 8.49067 191.687 7.872 192.732 7.424C193.799 6.95467 195.025 6.72 196.412 6.72Z" fill="black"/>
</svg>
