<svg width="22" height="17" viewBox="0 0 22 17" fill="none" xmlns="http://www.w3.org/2000/svg">
<path d="M14.075 13.9556L13.225 15.9522C13.1583 16.1032 13.0416 16.2267 12.875 16.3227C12.7083 16.4188 12.525 16.4668 12.325 16.4668C11.9916 16.4668 11.7208 16.3536 11.5125 16.1272C11.3041 15.9008 11.2666 15.6503 11.4 15.3759L15.2 7.10137C15.2833 6.95042 15.4083 6.82692 15.575 6.73087C15.7416 6.63481 15.925 6.58679 16.125 6.58679H16.875C17.075 6.58679 17.2583 6.63481 17.425 6.73087C17.5916 6.82692 17.7166 6.95042 17.8 7.10137L21.6 15.3965C21.7333 15.6572 21.7 15.9008 21.5 16.1272C21.3 16.3536 21.0333 16.4668 20.7 16.4668C20.4833 16.4668 20.2958 16.4188 20.1375 16.3227C19.9791 16.2267 19.8583 16.0963 19.775 15.9316L18.925 13.9556H14.075ZM8.04998 9.85954L3.69998 13.4205C3.51664 13.5714 3.28748 13.6503 3.01248 13.6572C2.73748 13.664 2.49998 13.5851 2.29998 13.4205C2.11664 13.2695 2.02498 13.0774 2.02498 12.8441C2.02498 12.6108 2.11664 12.4187 2.29998 12.2678L6.64998 8.68629C6.06664 8.20601 5.53748 7.65712 5.06248 7.03962C4.58748 6.42212 4.14998 5.72228 3.74998 4.94012H5.84998C6.18331 5.47528 6.51664 5.94184 6.84998 6.33978C7.18331 6.73773 7.58331 7.13567 8.04998 7.53362C8.59998 7.08079 9.17081 6.44613 9.76248 5.62966C10.3541 4.81319 10.8 4.03445 11.1 3.29345H0.999975C0.716642 3.29345 0.479142 3.21455 0.287475 3.05674C0.0958085 2.89893 -2.47955e-05 2.70339 -2.47955e-05 2.47011C-2.47955e-05 2.23684 0.0958085 2.04129 0.287475 1.88349C0.479142 1.72568 0.716642 1.64678 0.999975 1.64678H6.99998V0.823445C6.99998 0.590167 7.09581 0.394625 7.28748 0.236819C7.47914 0.0790135 7.71664 0.000110626 7.99998 0.000110626C8.28331 0.000110626 8.52081 0.0790135 8.71248 0.236819C8.90414 0.394625 8.99998 0.590167 8.99998 0.823445V1.64678H15C15.2833 1.64678 15.5208 1.72568 15.7125 1.88349C15.9041 2.04129 16 2.23684 16 2.47011C16 2.70339 15.9041 2.89893 15.7125 3.05674C15.5208 3.21455 15.2833 3.29345 15 3.29345H13.1C12.75 4.28145 12.225 5.29689 11.525 6.33978C10.825 7.38267 10.1333 8.17856 9.44998 8.72745L11.85 10.7446L11.1 12.4325L8.04998 9.85954ZM14.7 12.5148H18.3L16.5 8.31579L14.7 12.5148Z" fill="url(#paint0_linear_6_133)"/>
<defs>
<linearGradient id="paint0_linear_6_133" x1="10.8399" y1="0" x2="10.8399" y2="16.4667" gradientUnits="userSpaceOnUse">
<stop stop-color="#3592E9"/>
<stop offset="1" stop-color="#195AD3"/>
</linearGradient>
</defs>
</svg>
